# xmcd
#
# Track frame offsets: 
#        150
#        16862
#        35215
#        53375
#        71767
#        86627
#        102557
#        120232
#        135905
#        152225
#
# Disc length: 2288 seconds
#
# Revision: 1
# Processed by: cddbd v1.5PL3 Copyright (c) Steve Scherf et al.
# Submitted via: ExactAudioCopy v0.90b4
#
DISCID=7a08ee0a
DTITLE=Ronnie Milsap - Inside
DYEAR=1900
DGENRE=Country
TTITLE0=Any Day Now
TTITLE1=Inside
TTITLE2=Carolina Dreams
TTITLE3=Wrong End Of The Rainbow
TTITLE4=I Love New Orleans Music
TTITLE5=He Got You
TTITLE6=Hate The Lies-Love The Liar
TTITLE7=Who's Counting
TTITLE8=You Took Her Off My Mind (Now Take Her Off My Mind)
TTITLE9=It's Just A Room
EXTD=
EXTT0=
EXTT1=
EXTT2=
EXTT3=
EXTT4=
EXTT5=
EXTT6=
EXTT7=
EXTT8=
EXTT9=
PLAYORDER=
